HIERARCHY
ROOT Hips
{
	OFFSET 0.000000 0.000000 0.000000
	CHANNELS 6 Xposition Yposition Zposition Zrotation Yrotation Xrotation 
	JOINT LHipJoint
	{
		OFFSET 0.000000 0.000000 0.000000
		CHANNELS 3 Zrotation Yrotation Xrotation
		JOINT LeftUpLeg
		{
			OFFSET 8.178360 -10.767780 5.035740
			CHANNELS 3 Zrotation Yrotation Xrotation
			JOINT LeftLeg
			{
				OFFSET 14.688660 -40.356780 0.000000
				CHANNELS 3 Zrotation Yrotation Xrotation
				JOINT LeftFoot
				{
					OFFSET 15.373200 -42.237540 0.000000
					CHANNELS 3 Zrotation Yrotation Xrotation
					JOINT LeftToeBase
					{
						OFFSET 0.945840 -2.598660 13.935300
						CHANNELS 3 Zrotation Yrotation Xrotation
						End Site
						{
							OFFSET 0.000000 0.000000 0.000000
						}
					}
				}
			}
		}
	}
	JOINT RHipJoint
	{
		OFFSET 0.000000 0.000000 0.000000
		CHANNELS 3 Zrotation Yrotation Xrotation
		JOINT RightUpLeg
		{
			OFFSET -7.833120 -10.767780 5.035740
			CHANNELS 3 Zrotation Yrotation Xrotation
			JOINT RightLeg
			{
				OFFSET -15.255180 -41.913300 0.000000
				CHANNELS 3 Zrotation Yrotation Xrotation
				JOINT RightFoot
				{
					OFFSET -15.409560 -42.337380 0.000000
					CHANNELS 3 Zrotation Yrotation Xrotation
					JOINT RightToeBase
					{
						OFFSET -0.988380 -2.715540 14.178900
						CHANNELS 3 Zrotation Yrotation Xrotation
						End Site
						{
							OFFSET 0.000000 0.000000 0.000000
						}
					}
				}
			}
		}
	}
	JOINT LowerBack
	{
		OFFSET 0.000000 0.000000 0.000000
		CHANNELS 3 Zrotation Yrotation Xrotation
		JOINT Spine
		{
			OFFSET 0.169620 12.213540 -1.160280
			CHANNELS 3 Zrotation Yrotation Xrotation
			JOINT Spine1
			{
				OFFSET 0.340320 12.293100 -0.256500
				CHANNELS 3 Zrotation Yrotation Xrotation
				JOINT Neck
				{
					OFFSET 0.000000 0.000000 0.000000
					CHANNELS 3 Zrotation Yrotation Xrotation
					JOINT Neck1
					{
						OFFSET -0.325020 10.477440 1.032120
						CHANNELS 3 Zrotation Yrotation Xrotation
						JOINT Head
						{
							OFFSET 0.624420 10.568160 -0.743820
							CHANNELS 3 Zrotation Yrotation Xrotation
							End Site
							{
								OFFSET 0.000000 0.000000 0.000000
							}
						}
					}
				}
				JOINT LeftShoulder
				{
					OFFSET 0.000000 0.000000 0.000000
					CHANNELS 3 Zrotation Yrotation Xrotation
					JOINT LeftArm
					{
						OFFSET 20.174460 7.205340 -1.867260
						CHANNELS 3 Zrotation Yrotation Xrotation
						JOINT LeftForeArm
						{
							OFFSET 29.898000 -0.000000 -0.000000
							CHANNELS 3 Zrotation Yrotation Xrotation
							JOINT LeftHand
							{
								OFFSET 20.901360 -0.000000 -0.000000
								CHANNELS 3 Zrotation Yrotation Xrotation
								JOINT LeftFingerBase
								{
									OFFSET 0.000000 0.000000 0.000000
									CHANNELS 3 Zrotation Yrotation Xrotation
									JOINT LeftHandIndex1
									{
										OFFSET 4.291560 -0.000000 -0.000000
										CHANNELS 3 Zrotation Yrotation Xrotation
										End Site
										{
											OFFSET 0.000000 0.000000 0.000000
										}
									}
								}
								JOINT LThumb
								{
									OFFSET 0.000000 0.000000 0.000000
									CHANNELS 3 Zrotation Yrotation Xrotation
									End Site
									{
										OFFSET 0.000000 0.000000 0.000000
									}
								}
							}
						}
					}
				}
				JOINT RightShoulder
				{
					OFFSET 0.000000 0.000000 0.000000
					CHANNELS 3 Zrotation Yrotation Xrotation
					JOINT RightArm
					{
						OFFSET -18.819600 8.244300 -2.427900
						CHANNELS 3 Zrotation Yrotation Xrotation
						JOINT RightForeArm
						{
							OFFSET -31.451400 -0.000000 -0.000000
							CHANNELS 3 Zrotation Yrotation Xrotation
							JOINT RightHand
							{
								OFFSET -20.665020 -0.000000 -0.000000
								CHANNELS 3 Zrotation Yrotation Xrotation
								JOINT RightFingerBase
								{
									OFFSET 0.000000 0.000000 0.000000
									CHANNELS 3 Zrotation Yrotation Xrotation
									JOINT RightHandIndex1
									{
										OFFSET -3.735180 -0.000000 -0.000000
										CHANNELS 3 Zrotation Yrotation Xrotation
										End Site
										{
											OFFSET 0.000000 0.000000 0.000000
										}
									}
								}
								JOINT RThumb
								{
									OFFSET 0.000000 0.000000 0.000000
									CHANNELS 3 Zrotation Yrotation Xrotation
									End Site
									{
										OFFSET 0.000000 0.000000 0.000000
									}
								}
							}
						}
					}
				}
			}
		}
	}
}
MOTION
Frames:	10
Frame Time:	0.0333333
-75.613914 107.473218 74.764422 -1.772113 21.246305 0.933604 -2.650291 1.536773 2.301865 -7.742507 -9.214100 -10.507598 -0.276880 6.992082 20.673842 0.088396 1.367968 -7.224669 0.893500 -6.024600 -16.856000 0.926844 -1.108503 0.984291 15.911622 5.027223 -14.302114 -1.753693 -8.921264 26.697937 -1.324327 6.845298 0.873824 -0.026100 1.043400 -2.868200 4.470853 2.397826 14.867538 2.283134 4.229228 2.140966 -1.232713 2.043303 -6.106617 -10.329913 -1.013273 -9.268247 2.499862 0.638979 33.722376 3.568500 -1.315600 18.461200 -4.101265 -1.512852 -1.126957 -83.437871 1.768464 64.600219 69.761730 -56.188573 -49.218819 -0.051446 -2.190740 -4.401478 31.457050 19.012794 12.762800 -7.125000 0.000000 0.000000 3.236100 54.790100 0.778800 3.711720 1.038827 -1.057193 75.512842 -3.801593 52.182917 -89.619557 59.453301 -61.824018 0.677549 -0.092195 -10.281660 -14.024180 16.347894 -4.257900 7.125000 0.000000 0.000000 8.735500 -13.080600 6.610800 
-76.297716 107.674938 75.597708 -1.554830 26.281874 1.270440 -2.596157 1.490325 2.287889 -7.419050 -6.726105 -11.879346 -0.414602 6.862738 20.117280 -1.019288 7.166992 -8.740048 0.338300 -3.737700 -10.339900 0.927231 -1.133384 0.999243 16.307812 3.020606 -13.896783 -1.657537 -8.759818 26.153346 -0.871857 3.631087 -0.137285 -0.035700 1.220100 -3.354600 4.184278 2.263725 13.936010 2.401812 3.950847 2.033603 -0.726672 1.913494 -5.841795 -10.474246 -1.238268 -9.322343 2.869079 0.387690 33.834197 3.761700 -1.356100 18.583900 -4.088339 -1.479164 -1.127656 -83.346158 1.680729 65.092176 69.842388 -56.214906 -49.288378 -0.041541 -2.195216 -4.439316 31.470678 19.369375 12.964200 -7.125000 0.000000 0.000000 3.178800 55.198700 0.796600 3.719205 1.053891 -1.054176 74.791393 -3.978047 52.366940 -89.264034 59.446548 -61.519143 0.679441 -0.085615 -10.745067 -14.052420 16.314643 -4.258300 7.125000 0.000000 0.000000 8.715300 -13.112400 6.589200 
-76.991718 107.801610 76.328328 -2.285912 31.396812 0.618684 -2.485884 1.496885 2.303607 -6.460442 -4.210570 -13.153337 -0.472195 6.820484 19.815102 -1.962146 11.619315 -10.499850 0.107800 -2.117000 -5.829200 0.904848 -1.181794 0.998533 17.794566 1.851573 -12.773975 -1.587014 -8.637127 25.770079 -0.122789 -0.736924 -1.598936 -0.060300 1.584500 -4.358700 4.444856 2.050299 13.818489 2.723682 3.734754 1.997733 -0.209564 1.799461 -5.894974 -10.456791 -1.307375 -9.294390 2.897312 0.384693 33.747043 3.773400 -1.308000 18.516300 -4.066335 -1.488285 -1.129605 -83.344315 1.549804 65.437443 69.835520 -56.194541 -49.155151 -0.026647 -2.253173 -4.186975 32.679414 22.404935 15.298500 -7.125000 0.000000 0.000000 3.916300 58.974300 1.338800 3.753980 1.057296 -1.059188 74.426086 -4.193167 52.338917 -88.694957 59.423031 -61.021762 0.685377 -0.093911 -10.460176 -14.052593 16.602863 -4.333300 7.125000 0.000000 0.000000 8.716300 -12.814500 6.645100 
-77.459388 107.888658 77.033142 -2.340803 36.254327 0.839697 -2.456781 1.424288 2.216939 -6.327445 -2.606939 -14.646939 -0.554421 6.786662 19.560140 -2.914595 15.872723 -12.451927 0.085700 1.888200 5.196800 0.909856 -1.199536 1.019981 18.408497 0.499133 -12.509369 -1.514762 -8.507771 25.348203 0.544726 -4.185577 -2.753578 -0.022200 0.961600 -2.643200 4.398349 2.093233 13.218373 2.717049 3.739969 1.749424 -0.167699 1.806757 -6.010171 -10.386233 -1.447291 -9.224060 3.029288 0.236668 33.688704 3.817000 -1.295200 18.494200 -4.057499 -1.470655 -1.143187 -83.342115 1.753660 65.475699 69.495585 -56.121384 -48.947214 -0.028606 -2.198446 -3.928391 31.099554 20.120185 13.171500 -7.125000 0.000000 0.000000 2.588500 55.951400 0.695800 3.745907 1.072463 -1.070649 74.723871 -4.892240 51.846641 -89.095829 59.426567 -61.375275 0.680300 -0.080596 -11.270870 -13.975862 16.356907 -4.246000 7.125000 0.000000 0.000000 8.766900 -13.075500 6.636100 
-77.634090 107.944494 77.718138 -3.493687 40.920565 -0.138373 -2.379731 1.408247 2.139680 -5.701933 -1.561234 -15.708124 -0.555920 6.977510 19.933454 -4.291010 21.692279 -15.487469 0.476000 4.424500 12.274000 0.890895 -1.245696 1.047762 19.877748 -1.250429 -11.566163 -1.380053 -8.212546 24.485979 1.170407 -7.180573 -3.786955 -0.019000 0.890400 -2.447300 5.118463 2.262265 12.802321 3.053932 4.070970 1.688380 0.022132 1.961963 -5.931634 -10.562737 -1.551290 -9.100307 2.703500 0.321005 33.509845 3.703200 -1.284400 18.325300 -4.040252 -1.484938 -1.146942 -83.738682 1.723625 66.108916 69.028552 -56.014183 -48.696217 -0.131244 -2.112927 -3.890275 30.428174 15.615022 10.403700 -7.125000 0.000000 0.000000 2.728500 50.643500 0.379700 3.773762 1.050214 -1.087109 74.716070 -5.580500 51.097763 -89.150621 59.421584 -61.404184 0.691312 -0.075588 -11.098049 -14.482269 16.476822 -4.432200 7.125000 0.000000 0.000000 8.423800 -12.911800 6.399600 
-77.720538 108.080772 78.232038 -4.203761 45.481710 -0.715015 -2.352884 1.308235 2.080340 -5.676561 -0.271861 -17.094009 -0.621412 7.164799 20.479902 -4.362550 23.377001 -21.019477 2.018900 8.905300 25.499700 0.897739 -1.254158 1.064819 20.801207 -2.940908 -11.046904 -1.255601 -7.932409 23.660921 1.792941 -10.019168 -4.705893 -0.028800 1.095900 -3.012600 5.600410 2.227439 12.764943 3.007191 4.102483 1.423534 -0.336252 1.975192 -6.321294 -10.267597 -1.420875 -9.377703 2.515024 0.609644 33.419205 3.606800 -1.117800 18.349400 -4.026531 -1.504567 -1.162792 -83.424208 1.898868 65.832743 69.049755 -56.014861 -48.662808 -0.096308 -2.129118 -4.051919 30.368476 16.666367 10.950900 -7.125000 0.000000 0.000000 2.491200 51.833300 0.419400 3.764100 1.052676 -1.111397 75.208418 -6.018965 51.135887 -89.523553 59.418832 -61.731213 0.685987 -0.075609 -10.986280 -14.410782 16.324034 -4.369300 7.125000 0.000000 0.000000 8.471800 -13.075900 6.407400 
-77.653902 108.090978 78.727926 -5.273502 50.010848 -1.544156 -2.272987 1.242346 1.956458 -5.824126 1.823226 -18.836796 -0.540805 7.301534 20.687712 -5.258404 26.159997 -20.479024 2.473900 9.790400 28.300500 0.874571 -1.277996 1.089112 21.845411 -4.398973 -10.651165 -1.169515 -7.741552 23.113593 2.403503 -12.732316 -6.012812 -0.004300 0.425600 -1.169500 5.659927 2.368531 12.095856 3.225496 4.245875 1.444108 0.043073 2.056137 -5.943311 -10.505862 -1.419675 -9.806771 2.509581 0.832783 33.164322 3.686500 -1.033200 18.285100 -4.018888 -1.504217 -1.180059 -83.702761 1.652826 65.677798 68.443853 -55.849326 -48.057464 -0.144990 -2.133831 -3.900683 31.169060 16.638731 11.303900 -7.125000 0.000000 0.000000 3.371900 51.977800 0.579800 3.795905 1.042029 -1.118942 75.346229 -5.848558 50.926712 -89.360099 59.423675 -61.594481 0.687571 -0.078264 -10.802644 -14.352484 16.413881 -4.375300 7.125000 0.000000 0.000000 8.511000 -12.989300 6.453400 
-77.337516 108.113790 78.942252 -5.406658 54.326458 -1.843843 -2.326831 1.201921 1.851200 -6.528999 2.174961 -19.481626 -0.526765 7.274765 20.408310 -6.410031 29.449785 -18.403441 2.321700 9.506300 27.392400 0.871355 -1.297963 1.107295 21.889710 -5.785438 -10.423859 -1.155620 -7.722301 23.052920 2.955842 -15.134554 -7.435189 -0.000100 -0.051000 0.140000 5.590274 2.531219 11.887119 3.193551 4.428417 1.404238 -0.019712 2.152571 -5.904325 -10.795145 -1.335596 -10.075427 2.664111 1.154543 32.984292 3.879500 -0.904400 18.234400 -4.036681 -1.499568 -1.214812 -84.197883 1.570367 65.284836 67.316039 -55.531895 -46.986673 -0.203684 -2.121962 -3.738075 31.580178 15.966559 11.113500 -7.125000 0.000000 0.000000 3.936300 51.287400 0.610500 3.798842 1.056145 -1.118736 75.477229 -5.729893 50.885785 -88.896097 59.407322 -61.170675 0.700694 -0.094784 -9.768339 -14.712423 16.907990 -4.619200 7.125000 0.000000 0.000000 8.273200 -12.447100 6.363800 
-76.877652 108.068766 79.088736 -6.636896 58.102798 -2.893082 -2.373924 1.183978 1.793779 -6.225138 0.867747 -19.290318 -0.617390 7.118562 19.868643 -6.934051 31.006492 -18.209117 1.799000 8.434300 24.041200 0.859158 -1.308569 1.108049 22.563172 -6.402614 -10.128571 -1.168542 -7.765253 23.175380 3.565383 -17.713693 -8.578974 -0.000000 -0.031000 0.085200 6.127725 2.681031 11.722854 3.103782 4.691951 1.284469 -0.528320 2.278144 -5.959415 -10.482549 -1.088794 -10.341556 2.611791 1.551102 32.783683 3.860200 -0.675600 18.147000 -4.026199 -1.500983 -1.219063 -83.962164 1.940026 64.486008 67.579364 -55.628251 -47.307320 -0.138936 -2.085995 -3.785305 29.540371 15.082310 9.739400 -7.125000 0.000000 0.000000 1.907300 49.833500 0.227400 3.796711 1.037264 -1.139791 76.191772 -5.595745 51.085596 -88.248680 59.376417 -60.611434 0.691129 -0.110349 -8.173247 -14.609352 16.768135 -4.547700 7.125000 0.000000 0.000000 8.342300 -12.604000 6.390500 
-76.377558 108.012936 78.981270 -6.987210 62.129955 -3.307626 -2.490178 1.152174 1.722411 -6.446905 -0.561671 -19.002214 -0.691468 6.812646 18.887019 -6.664685 29.694931 -14.184471 1.039400 6.484100 18.195600 0.846190 -1.314710 1.107798 22.324110 -6.816529 -9.842023 -1.228332 -7.920498 23.637213 4.037871 -19.701755 -9.995115 -0.012500 -0.723000 1.987000 6.112435 2.733091 11.589848 2.787105 4.720821 1.282011 -1.147790 2.309945 -5.803872 -9.366371 -0.816507 -10.569888 2.235177 1.746487 32.451740 3.477400 -0.420900 17.958400 -4.020027 -1.523996 -1.205976 -83.196990 2.091303 64.161291 67.685025 -55.651301 -47.258941 -0.219284 -2.113218 -4.351218 32.168107 15.648676 11.187700 -7.125000 0.000000 0.000000 4.616700 51.033800 0.687500 3.790975 1.000908 -1.147822 76.727091 -4.972521 51.578431 -87.460167 59.343057 -59.920639 0.685139 -0.122679 -7.332607 -14.527602 16.835106 -4.538700 7.125000 0.000000 0.000000 8.400900 -12.542400 6.447400 
